<?xml version="1.0" standalone="yes"?>
<svg xmlns="http://www.w3.org/2000/svg" width="608" height="350">
<path style="fill:#404040; stroke:none;" d="M220 88L220.042 89.6713L220.089 90.1589L220.171 91.1605L220.439 93.0247L221.192 97C221.372 97.993 221.559 98.9906 221.621 100L221.625 101.998L221.536 102.995L221.169 105.84L221.042 107.329L221 109L219.375 108.062L219 107.8L217.625 106.938L216 106L216.628 107.511L216.951 107.846L217.451 108.549L218.489 109.372L220 110L219.586 111.671L219.413 112.159L219.093 113.16L218.049 116.005L216.667 120L215.025 125L213.809 129L212.555 133L211.729 135.998L210.864 138.955L210.596 139.84L210.364 140.841L210.225 141.329L210 143L208.329 142.817L207.841 142.724L206.84 142.571L203.995 142.08C201.99 141.742 199.98 141.428 198 140.961L196 140.444L192.005 139.285C190.022 138.768 188.01 138.391 186 138L186.098 136.329L186.167 135.841L186.286 134.84L186.846 130.998C186.972 130.003 187.023 128.991 187.214 128.004C187.41 126.985 187.685 126.009 188.179 125.09C189.269 123.058 191.111 121.613 192.694 119.991L193.914 118.63L195 117L193.355 117.494L192.886 117.682L191.114 118.318L190.645 118.506L189 119L189.187 117.329L189.291 116.841L189.468 115.84L189.924 113.975C190.455 111.975 191.234 110.037 191.624 108L191.896 106.002L191.957 105.005L191.996 103.045L192 99L191.414 100.086L191.353 100.517L191.141 101.32L190.886 103.035L190.4 104.812L189.4 106.168L187.897 106.659L186.204 106.154L184.637 104.914L183 103L182.457 104.086L182.447 104.517L182.33 105.321C182.351 106.557 182.574 107.776 182.678 109.005L182.737 111L182.517 113C182.288 114.367 181.88 115.699 181.41 117C180.927 118.336 180.304 119.625 179.931 121L179.528 123L179.33 125C179.229 126.005 179.122 127.003 178.958 128C178.577 130.304 177.952 132.558 177.465 134.84L177.187 136.329L177 138L165 138L161 137.996C160 137.987 158.998 137.98 158 137.91C156.995 137.84 155.994 137.729 155 137.561C152.663 137.166 150.351 136.599 148 136.289L146 136.086C144.669 136.001 143.332 135.966 142.005 135.831C141.05 135.734 140.108 135.574 139.16 135.425L138.159 135.275L137.671 135.183L136 135L136.123 136.671L136.212 137.159L136.347 138.16L136.482 139.045L136.57 140.025L136.405 142.002C136.045 143.483 135.201 144.769 134.337 146L130.721 151C129.13 153.279 127.64 155.621 126.204 158C125.209 159.648 124.234 161.306 123.32 163C122.792 163.979 122.324 164.988 121.864 166L120.14 170L118.306 174L116.15 179C115.293 180.997 114.423 182.987 113.604 185C113.2 185.992 112.799 186.991 112.439 188C112.086 188.99 111.759 189.985 111.485 191L110.715 194L110.113 196L109.41 198L108.344 201L105.333 210L103.947 214L102.396 218C101.857 219.347 101.296 220.686 100.681 222L98.6798 226L97.8148 228L97.2747 230L97.0548 232L97.0085 234C97.0176 235.333 97.0242 236.673 97.1698 238L97.4244 240L97.7145 242C97.8387 243 97.9067 243.996 97.9753 245L98.0856 247L98.2855 249L98.7145 252L98.9105 254C99.0929 256.662 98.8528 259.35 99.2083 262L99.5795 264C99.8083 264.994 100.101 265.986 100.236 267L100.371 268.999L100.34 269.996L100.302 271.957L100.404 272.896L101.042 274.62L102.314 276.08L103.123 276.712L104.859 277.765L106.329 278.459L108 279L108.897 277.329L109.421 275.84L109.797 273.975L109.958 271.998L110 268C110.003 265.668 110.052 263.324 109.83 261C109.702 259.659 109.458 258.333 109.271 257L108.87 254L108.579 252C108.436 251.001 108.258 250.006 108.169 249L107.976 246L107.849 244.005L107.7 242.059L107.736 240.321L108.004 239.517L108.081 239.086L109 238L108.522 236.329L108.098 234.84L107.921 233.955L107.869 231.995C108 230.616 108.509 229.276 109.019 228C109.957 225.656 111.062 223.379 111.91 221C112.612 219.033 113.132 217.006 113.709 215L114.579 212L115.72 208C116.117 206.657 116.562 205.329 117.001 204C118.1 200.67 119.268 197.358 120.28 194L121.721 189C122.234 187.314 122.805 185.65 123.425 184L124.604 181C125.147 179.656 125.705 178.318 126.309 177C127.081 175.313 127.924 173.659 128.753 172C130.111 169.285 131.449 166.559 133.09 164C135.111 160.848 137.471 157.925 139.801 155L143.001 151L144.615 149.001L146.289 147.019L147.171 146.059L148.09 145.147L150.015 143.589L152.001 142.514L153 142.148L155 141.634C155.992 141.442 156.991 141.256 158 141.171L160 141.039L163 141.001L176 141L175.938 142.667L175.853 143.144L175.683 144.117L174.992 145.814C174.514 146.676 173.829 147.375 173.168 148.093L172.552 148.707L171.976 149.414L171.65 149.738L171 151L175 151L174.59 152.671L174.427 153.159L174.129 154.16L173.285 157.005C172.855 158.654 172.534 160.33 172.2 162C171.812 163.94 171.424 165.877 171.171 167.84L171.042 169.329L171 171L171.912 169.914L172.087 169.483L172.514 168.679C172.86 167.805 173.125 166.9 173.411 166.006L173.988 164.16L175 161L176.671 162.239L178.141 163.45L179.877 165.113L181.398 166.992L182.396 168.84L182.685 169.841L183 172L185 172C184.983 169.997 185.036 167.973 184.66 165.995C184.466 164.969 184.17 163.987 183.83 163C183.372 161.668 182.803 160.379 182.47 159.005C182.243 158.067 182.122 157.122 182.054 156.16C181.98 155.114 182.012 154.045 182 153L183.645 153.182L184.114 153.276L185 153.42L188 154L187.366 152.64L187.064 152.246L186.542 151.421L185.513 149.806L185.117 148.907L184.917 147.005L185.662 145.147L187.153 143.603L188.059 143.028L189.019 142.603L191.001 142.149L193 142.035L195 142.105L196 142.21L198 142.61C199.368 142.959 200.683 143.497 201.998 144C203.271 144.487 204.539 144.978 205.84 145.39L207.329 145.775L209 146L208.079 149.16L207.478 151.025L206.748 153.002C206.113 154.654 205.304 156.262 204.919 158L204.648 160L204.563 163L204.205 167L204.21 169C204.307 170.677 204.675 172.332 204.999 173.975L205.684 177.329L206 179L206.647 177.919L207.157 176.757L207.509 176.069L208.57 174.903L209.999 174.63L210.741 174.921L211.416 175.466L212.397 177.078C212.78 177.996 212.864 179.021 212.944 179.999L213.029 181.975L213.16 183.84L213.415 185.329L214 187L214.585 185.914L214.642 185.483L214.84 184.679L214.966 182.941C214.993 181.961 215.005 180.979 214.985 179.999C214.964 178.995 214.912 178.001 214.829 177L214.561 175C214.197 172.665 213.603 170.369 213.289 168.025C213.14 166.911 213.05 165.794 213.015 164.671L213 163L212.042 164.081L211.262 165.243L210.781 165.931L209.562 167.097L208.225 167.37L207.639 167.079L207.183 166.534L206.899 165.793L206.813 163.976L207.136 161.999L207.552 160C207.871 158.333 208.139 156.659 208.5 155C208.794 153.651 209.207 152.328 209.579 151L211.579 144L212.421 141L213.576 137L215.427 130C215.709 128.992 216.024 127.993 216.355 127C217.142 124.638 218.099 122.34 218.946 120C219.306 119.007 219.658 118.009 219.971 117C220.486 115.342 220.951 113.671 221.421 112C221.792 110.678 222.171 109.362 222.485 108.025L222.816 106.16L222.907 105.159L223 103L224.804 103.995L225.463 104.61L226.096 106.149L226.104 108.019L225.927 109.005L225.416 111C224.798 113.355 224.085 115.685 223.33 118L220.333 127C219.563 129.319 218.779 131.636 218.156 134C217.894 134.993 217.646 135.992 217.45 137L216.576 142C216.339 143.338 216.07 144.671 215.789 146L214.424 152C213.928 154.264 213.467 156.54 213.171 158.84L213.042 160.329L213 162L214.667 161.849L215.134 161.921L216.116 162.002L217.866 162.409L218.333 162.548L220 163L218.94 161.489L218.528 161.154L217.84 160.451L216.61 159.628L215 159L215.275 156.841L215.515 155.84L216.318 153.976L217.573 152.018L219.189 150.148L221.04 148.603L222.015 148.028L224.001 147.319L225 147.152L227 147.059C228.008 147.088 228.999 147.163 230 147.285L234 147.83C235.33 147.96 236.666 147.977 237.999 148.055L238.996 148.147L240.96 148.603L242.811 149.603L243.656 150.318L245.106 152.059C245.915 153.252 246.443 154.589 246.721 156C246.917 156.989 246.945 157.997 246.981 159L246.995 161L246.961 163L246.831 165C246.724 166.338 246.442 167.658 246.375 169L246.34 170L246.463 172L246.586 173C246.698 174.001 246.823 174.991 246.821 176C246.819 177.35 246.605 178.667 246.424 180C246.288 180.999 246.158 181.993 246.09 183C245.976 184.661 246.003 186.331 246 187.995L246 194L246.585 192.914L246.642 192.483L246.84 191.679C246.943 190.792 246.963 189.898 246.986 189.006C247.029 187.339 247 185.667 247 184L248.671 184.114L249.158 184.211L250.157 184.395L251.981 185.009L253.788 186.009L254.606 186.653L256.005 188.214L257.084 190.043L257.931 192.004L258.654 193.995L259.642 196.84L260.217 198.329L261 200L261.539 198.914L261.63 197.679L261.371 195.941L260.843 193.995L260.282 192L259.779 190L259.265 188C258.891 186.659 258.497 185.324 258.066 184L257.041 181C256.727 180.016 256.429 179.031 256.299 178.002C256.003 175.641 256.574 173.307 257 171L258.645 171.926L260 172.71L260.886 173.142L261.355 173.407L263 174L261.96 172.329L261.591 171.841L260.296 169.955L259.16 167.995L258.418 166L258.019 164L257.731 162C257.592 160.999 257.436 160.007 257.344 159L257.318 158.001L257.643 156.019L258.607 154.148L260.148 152.603L261.059 152.028L262.019 151.603L263.005 151.318L264.001 151.148L265 151.059L267 151.005L269 151L271 151.001L274 151.055L275 151.133L276.995 151.514C278.683 152.03 280.286 152.944 281.397 154.344L281.972 155.189L282.678 157.04L282.837 158.015L282.891 160.001C282.855 161.344 282.622 162.68 282.385 164L281.6 168C281.326 169.324 281.056 170.642 280.68 171.941L279.99 173.679L279.201 174.914L278 176L278 178L278.919 179.086L278.996 179.517L279.263 180.321L279.285 182.059L279.062 184.005L278.286 189L278.09 191L278.039 192L278 196L278 204L278.586 202.914L278.646 202.483L278.854 201.679L278.946 200.863L279.155 199.006L279.418 197.16L280 194L281.667 194.245L282.14 194.423L283.102 194.743L284.711 195.742L286.013 197.228L286.852 199.044L287.138 200.015L287.571 202.001L288.247 205.955L289 210L289.585 208.914L289.641 208.483L289.836 207.679L289.927 205.941L289.827 203.995L289.714 202.999C289.483 201.334 289.212 199.678 289.089 198C288.967 196.335 288.991 194.664 288.83 193L288.289 189C288.175 188 288.104 187.008 288.129 186C288.177 184.037 288.594 182.104 288.83 180.16L288.958 178.671L289 177L290.625 177.312L292.375 177.688L294 178C293.516 176.961 292.976 175.906 292.542 174.84C292.167 173.917 291.818 172.98 291.644 171.995L291.478 170L291.655 168L292.198 165L292.576 163L292.938 161C293.141 159.989 293.335 158.96 293.728 158.001L294.175 157.005L295.434 155.059L296.228 154.148L297.109 153.318L299.015 152.028L301.001 151.318L302 151.148L304 151.019L305 151.005L308 150.985C309.001 150.96 310.004 150.939 311 150.83L316 150.174L317.999 150.098L318.995 150.163L320.941 150.604L322.682 151.603L323.397 152.318L324.397 154.059L324.682 155.019L324.937 157.001L324.941 159L324.866 160L324.722 161L324.157 163C323.765 164.051 323.199 165.019 322.656 165.995L322.09 166.975L321.091 168.84L320.456 170.329L320 172L321.333 170.975L321.708 170.62L323.162 169.38L323.537 169.025L325 168C324.991 169.051 325.009 170.109 324.961 171.16C324.917 172.113 324.836 173.059 324.711 174.005C324.355 176.69 323.638 179.314 323.289 182C323.16 182.998 323.082 183.994 323.039 185L322.91 189C322.84 190.007 322.715 191.001 322.576 192L322.17 194.998C321.947 197.324 322.002 199.667 322 202L322.683 200.914L322.809 200.483L323.126 199.679L323.542 197.941L323.827 195.995L323.961 194L324.039 191L324.174 189L324.483 187.001L324.724 186.005L325.434 184.063L326.563 182.377L328.126 181.346L329.886 181.346L330.726 181.752L331.487 182.377L332.682 184.063L333.106 185.02L333.427 186.005L333.811 187.995C334.029 189.991 333.994 191.996 334 194L334.585 192.914L334.642 192.483L334.84 191.679C334.944 190.783 334.958 189.882 334.986 188.981L334.999 186.999L335 185C334.997 182.999 335.02 180.994 334.83 179L334.424 176C334.285 175.001 334.159 174.008 334.09 173.002C334.022 172.018 334.013 171.031 334.004 170.045L334 166L336 166.542L336.506 166.685L338 167L337.448 165.642L337.191 165.251L336.735 164.445L335.747 162.967L335.183 162.066L334.883 161.628L334 160L333.415 161.086L333.358 161.517L333.16 162.321L333.034 164.059L333.002 166.005L332.961 169C332.917 169.997 332.841 170.985 332.715 171.975L332.425 173.84L332.275 174.841L332.183 175.329L332 177L327 177L327 164L326.999 160L326.961 157C326.917 155.995 326.844 154.998 326.715 154L326.285 151L326.09 149C325.998 147.669 326.004 146.333 326.001 145L326 139L326.001 133C326.004 131.667 325.998 130.331 326.09 129C326.158 127.993 326.285 126.999 326.424 126L326.83 123C326.927 122.002 326.959 121.002 327.005 120.001L327.147 118.02L327.318 117.063L327.603 116.167L328.023 115.377L329.259 114.346L330.741 114.346L331.416 114.752L331.977 115.377L332.397 116.167L332.852 118.02L332.941 119.005L332.999 122L333 132L333 153L334.079 151.914L334.311 151.488L334.868 150.698L335.904 149.075L336.549 148.259L338.143 146.843L340.019 145.8L341.005 145.388L343 144.675C343.988 144.339 344.991 144.015 346 143.745L348 143.236L350 142.808L352 142.439L354 142.175L355 142.109L356.995 142.163L358.941 142.604L360.682 143.603L361.968 145.148L362.382 146.059L362.758 148.005L362.655 150L362.478 151L361.957 153C361.364 155.044 360.571 157.03 359.772 159L358.496 162C357.964 163.315 357.46 164.629 357.09 166L356.08 170C355.8 171.013 355.483 172.012 355.124 173C354.014 176.055 352.46 178.926 351.384 181.995C351.056 182.931 350.771 183.88 350.519 184.84L350.316 185.841L350.198 186.329L350 188L351.262 186.918L351.586 186.502L352.293 185.738L352.907 185.011L353.618 184.263L355.21 183.067L357.028 182.546L358.896 182.801L359.776 183.198L360.581 183.747L361.91 185.228L362.428 186.109L363.211 188.014L363.761 189.976L364.552 193.329L365 195L365.585 193.914L365.642 193.483L365.839 192.679L365.951 190.941L365.907 188.995C365.826 187.649 365.615 186.327 365.385 185L364.819 182L364.532 180L364.474 179L364.603 177.002C364.785 175.698 365.184 174.437 365.486 173.16L365.802 171.671L366 170L367.246 171.082L367.546 171.498L368.199 172.262L368.713 172.989L369.801 174.408L370.454 175.009L370.754 175.346L372 176L371.571 174.329L371.373 173.841L370.603 171.955L369.252 168.998L368.711 167L368.664 166C368.692 164.596 369.234 163.286 369.736 162L370.552 160L371.316 158L372.449 155L374.55 150L376.742 144.005L377.9 141.16L378.279 140.159L378.49 139.671L379 138L380.671 137.903L381.159 137.836L382.16 137.729L383.045 137.619L385.005 137.499C386.023 137.491 387.046 137.703 388 138.049C389.841 138.715 391.474 139.901 392.907 141.214C394.456 142.633 395.743 144.295 396.957 146.001C398.106 147.616 399.159 149.306 400.188 151L401.38 153L402.468 155L402.925 156L403.582 158C403.979 159.626 403.972 161.313 403.996 162.975L404 168L404.585 166.96L404.641 166.641L404.897 165.522L405 164L406.241 165.086L407.145 166.321C407.624 167.183 408.087 168.063 408.356 169.019L408.826 171.001L409.27 174C409.516 175.663 409.793 177.317 409.91 178.995C409.977 179.942 409.987 180.891 409.996 181.84L410 185L412 185C411.986 183.322 411.997 181.652 411.83 179.98C411.736 179.033 411.573 178.099 411.425 177.16L411.275 176.159L411.183 175.671L411 174L412.667 173.59L413.134 173.428L414.884 172.868L415.866 172.572L416.333 172.41L418 172L418.413 173.67L418.901 175.136L419.566 176.864L419.994 177.846L420.191 178.33L421 180L421.542 178.914L421.549 178.483L421.654 177.679L421.437 175.941L420.892 173.995L420.123 172L419.688 171L418.245 168C417.595 166.669 416.918 165.35 416.309 164L414.579 160L413.281 157C412.271 154.659 411.332 152.282 410.191 150C409.511 148.639 408.754 147.322 408.001 146L406.884 144L405.972 142.005L405.681 141.019L405.666 139.144L405.994 138.303L406.531 137.564L408.1 136.434L409.03 136.032L410.957 135.483L412.841 135.172L413.329 135.099L415 135L415.613 136.671L415.906 137.159L416.437 138.16C417.271 139.486 418.204 140.741 419.131 142.002C420.844 144.329 422.64 146.599 424.251 149C425.122 150.299 425.93 151.633 426.691 153L428.861 157C429.618 158.347 430.405 159.677 431.204 161C432.015 162.345 432.836 163.686 433.696 165L435.745 168L437.217 170C437.929 170.987 438.686 171.945 439.298 173L440.262 175L440.567 176C440.83 176.977 440.903 177.995 440.956 179C441.009 179.997 441.002 181.002 440.995 182C440.987 183.332 440.978 184.675 440.83 186C440.643 187.676 440.36 189.338 440.079 191C439.796 192.679 439.511 194.352 439.077 196C438.457 198.355 437.553 200.623 436.924 202.975L436.468 204.84L436.291 205.841L436.187 206.329L436 208L437.119 206.914L437.346 206.483L437.876 205.679L438.625 203.941L439.276 201.995C439.668 200.672 440.028 199.343 440.346 198C441.127 194.697 441.703 191.349 442.246 188C442.462 186.67 442.699 185.342 442.83 184C442.96 182.672 443.001 181.334 442.981 180C442.967 178.999 442.935 177.995 442.815 177C442.649 175.633 442.341 174.294 441.867 173C440.505 169.286 437.933 166.239 435.745 163C434.425 161.045 433.215 159.021 432 157C431.003 155.341 429.98 153.692 429.039 152C428.492 151.016 427.955 150.025 427.489 149C426.741 147.355 426.073 145.677 425.4 144L423.424 139L421.548 134C421.144 132.983 420.684 131.99 420.218 131L419.241 129L417.688 126C417.126 124.979 416.534 123.978 415.9 123C414.828 121.348 413.625 119.787 412.517 118.16L411.955 117.159L411.639 116.671L411 115L412.671 115.343L414.146 116.029L415.931 117.318L417.676 119.059L419.239 121.005C419.95 121.988 420.64 122.982 421.301 124C422.358 125.628 423.32 127.308 424.269 129C425.008 130.318 425.713 131.653 426.398 133C427.068 134.316 427.668 135.665 428.297 137L430.219 141C430.681 141.992 431.137 142.985 431.547 144C432.079 145.316 432.537 146.658 432.997 148L434.348 152C434.831 153.36 435.339 154.713 435.996 156C436.714 157.406 437.569 158.722 438.493 160L441.572 164C442.772 165.585 444.028 167.18 444.86 169L445.574 171L445.787 172L446.282 176L446.715 179L446.91 181C446.979 181.998 446.987 183 446.996 184L447 188L446.985 191C446.964 192.001 446.936 193.005 446.816 194C446.48 196.764 445.568 199.421 444.55 202L442.45 207C441.933 208.309 441.471 209.635 441.043 210.975L440.519 212.84L440.316 213.841L440.198 214.329L440 216L438.333 215.677L437.866 215.468L436.884 215.109L435.134 214.202L434.667 213.927L433 213L433.59 215.1L434.029 216.008L435.317 217.363L437.039 218.08L438.86 217.824L440.44 216.663L441.607 214.941L442.061 213.981L443.225 211C443.883 209.317 444.565 207.649 445.306 206L446.691 203C447.546 201.038 448.354 199.056 448.957 197L449.482 195L449.674 194L449.907 192C450.069 190.005 449.952 187.997 450.09 186C450.159 184.993 450.288 184 450.424 183C450.603 181.676 450.855 180.343 450.778 179C450.719 177.977 450.543 176.963 450.182 176L449.79 175C449.197 173.664 448.5 172.37 447.986 171L447.35 169L446.61 166C446.299 164.936 445.842 163.942 445.259 163C444.123 161.162 442.554 159.643 441.17 158L439.532 156L438.8 155L437.529 153C436.97 152.033 436.489 151.023 436.044 150C435.477 148.696 434.987 147.359 434.569 146C434.06 144.346 433.731 142.641 433.177 141C432.714 139.632 432.128 138.316 431.536 137L430.164 134C429.069 131.644 427.921 129.315 426.742 127L425.197 124.002L424.303 122.025L423.789 120.16L423.711 118.671L424 117L422.506 117.315L422 117.458L420 118L419.346 116.66L418.39 115.569L416.851 114.414L415.941 113.948L414 113.393L412.045 113.344L411.16 113.438L408 114L407.782 112.355L407.42 111L406.897 109.645L406 108L405.517 109.086L405.541 109.517L405.49 110.321C405.604 111.243 405.825 112.139 406.123 113.019C406.473 114.053 406.928 115.025 407.417 116L408.645 118L409.378 119L411 121L411.829 122C412.813 123.256 413.847 124.515 414.485 125.995C414.866 126.881 415.163 127.876 415.002 128.852L414.758 129.682L413.639 130.972L411.938 131.682L410.98 131.853L408.999 131.995L408 132.035L407 132.089L405 132.285C403.335 132.517 401.679 132.796 400 132.91C398.004 133.047 395.999 132.979 394 133.015C392.999 133.034 391.993 133.071 391 133.209L389 133.594C387.676 133.936 386.369 134.367 385.025 134.625C383.915 134.838 382.8 134.943 381.671 134.984L380 135L380.47 133.333L381.16 131.898L382.275 130.296L383.447 129.085L385 128L384.704 126.329C384.534 125.217 384.413 124.102 384.495 122.975C384.593 121.618 384.941 120.29 385.363 119L387.139 114C387.944 111.679 388.594 109.309 389.436 107C390.392 104.375 391.546 101.826 392.39 99.1605L392.775 97.6713L393 96L391.99 97.0864L391.745 97.517L391.2 98.321L390.302 100.059L389.451 102.005L387.95 106L385.546 112.329L385 114L383.329 113.38L379.995 112.058L378.143 111.076L377.303 110.44L376.564 109.698L375.434 107.942C374.964 107.013 374.728 106.003 374.482 105L374.3 104.005L374.157 103.019L373.915 101.149L373.554 99.6103L373.164 98.9954L373.017 98.6543L372 98L372.183 99.6713L372.275 100.159C372.529 101.769 372.798 103.373 372.91 105.002C372.979 105.999 372.987 107 372.996 108L373 112L373 123L371.454 121.94L371.062 121.528L370.29 120.84L369.213 119.61L368 118L367.532 119.086L367.579 120.321L368.104 122.059L368.527 123.019C369.108 124.329 369.878 125.586 370.198 127L370.4 129L370.293 130L370.076 130.999L369.442 132.981L368.606 134.852L368.076 135.682L366.698 136.973L364.942 137.698L363.981 137.895L361.999 138.19L360 138.593L357 139.421L355 139.88L352 140.424L346 141.576L342 142.285C340.37 142.622 338.773 143.079 337.16 143.485L336.159 143.685L335.671 143.802L334 144L334.001 134C334.014 132.003 333.923 129.914 334.599 128.002C335.237 126.193 336.439 124.7 337.542 123.159L337.934 122.671L339 121L337.506 121.315L337 121.458L335 122C335.009 120.952 334.984 119.888 335.043 118.84C335.097 117.883 335.192 116.937 335.376 115.995C335.642 114.633 336.09 113.323 336.499 112L337.702 108C337.986 107.006 338.27 106.011 338.489 105C338.847 103.349 339.03 101.67 339.271 100C339.511 98.3349 339.795 96.6819 339.91 95.0015C339.978 94.0174 339.987 93.0307 339.996 92.0447L340 88L339.317 89.0864L339.191 89.517L338.874 90.321L338.458 92.0587L338.169 94.0046L338.076 95.0008L337.833 98C337.645 99.6804 337.342 101.346 336.995 103L336.785 103.999L336.291 105.981L335.567 107.852L334.436 109.397L333.697 109.972C332.617 110.67 331.276 110.868 330.02 110.941C328.351 111.039 326.671 110.999 325 111C324.995 109.327 325.028 107.646 324.91 105.975C324.84 104.977 324.714 103.991 324.576 103L324.17 100.025C324.006 98.3507 324.014 96.6797 324 95L322 95L322.098 96.6713L322.167 97.159L322.286 98.1605C322.473 99.441 322.695 100.714 322.834 102.002L323.075 105C323.163 106.006 323.287 107 323.425 108L323.729 110L324.271 114L324.715 116.975L324.91 118.84C325.006 119.886 324.978 120.954 325 122L323.506 121.415L323 121.347L321 121L322.025 122.671L322.37 123.159C323.151 124.39 323.952 125.61 324.415 127.005C324.846 128.301 324.935 129.646 324.981 131C325.025 132.332 324.999 133.668 325 135L325 147L323.329 147.098L322.841 147.167L321.84 147.286L318.995 147.718L314 148.282L310 148.83C307.672 149.053 305.328 148.947 303 149.17C301.379 149.325 299.777 149.633 298.16 149.83L296.671 149.958L295 150L295.09 147.841L295.174 146.84L295.464 144.975L295.888 142.998L297.127 138C297.793 135.332 298.433 132.656 299.151 130.002L300.245 126.16L300.505 125.159L300.647 124.671L301 123L302.625 122.897L304 122.641L304.375 122.585L306 122L304.96 121.415L304.641 121.359L303.522 121.103L302 121L302.229 119.329L302.653 117.84L303.442 115.975L304.559 113.998C305.433 112.641 306.367 111.328 307.283 110C308.825 107.764 310.381 105.529 311.716 103.16L312.448 101.671L313 100L311.527 101.086L310.354 102.321L307.485 105.942L306.675 106.837C305.926 107.634 304.996 108.377 303.96 108.762L301.996 109.069L301 108.932L300.005 108.654L298.059 107.767L297.147 107.181L295.589 105.725C294.255 104.09 293.843 102.005 293.404 100L292.804 97.0046L292.29 94.1605L292.098 92.6713L292 91L291.416 92.0864L291.362 92.517L291.175 93.321L291.123 95.0586L291.289 97.0046L291.718 100L292.282 105L292.576 107C292.712 107.999 292.844 108.993 292.91 110C292.999 111.326 292.996 112.654 292.942 113.981L292.857 114.941L292.707 115.851L292.131 117.39L291.329 118.346L290 119C290.382 120.658 290.861 122.309 290.88 124.025C290.898 125.72 290.504 127.36 290.122 129L289.873 130L288.873 134L286.627 142.998C286.183 144.773 285.727 146.544 285.327 148.329L285 150L278.995 150C277.331 149.997 275.661 150.024 274 149.91C272.656 149.818 271.332 149.618 270 149.421L267 149L265 148.725C263.998 148.557 263.006 148.382 262.019 148.137L260.148 147.486L259.318 147.012L258.028 145.686L257.318 143.941L257.148 142.981L257.059 141.995L257.005 140L257 137L257 131L257.005 128L257.059 126.004L257.148 125.015L257.318 124.039L258.028 122.17C258.572 121.181 259.349 120.381 260.13 119.58L261 118.739L262.684 117.071L263.914 115.656L265 114L263.33 114.608L262.846 114.888L261.864 115.383L260.136 116.409L259.154 116.947L258.67 117.245L257 118L257.098 116.329L257.167 115.841L257.287 114.84L257.754 111.995L258.424 108C258.836 105.717 259.341 103.451 259.71 101.16L259.902 99.6713L260 98L259.1 99.0864L258.938 99.517L258.54 100.321C258.239 101.194 258.022 102.094 257.818 102.994L257.441 104.84L257.279 105.841L257.184 106.329L257 108L255.329 107.627L254.842 107.448L252.975 106.683L252.034 106.141L250.316 104.721L249.603 103.867L248.603 101.981L248.148 99.9992L248.059 99.0015L248.019 98.0046L248 92L247.415 93.0864L247.358 93.517L247.16 94.321L247.034 96.0586L247 100L247 108L246.999 113C246.996 114.333 247.002 115.669 246.91 117C246.75 119.348 246.251 121.652 246.09 124C245.999 125.316 246.005 126.637 246.001 127.955L246 132L244.686 130.914L244.35 130.483L243.63 129.679L242.416 127.941C241.775 126.987 241.202 125.983 240.6 125.004L239.389 123.059L238.782 122.149L237.55 120.61L236.791 119.995L236.446 119.654L235 119L235.339 120.671L235.989 122.16L237.133 124.025L239.259 127L242.741 132L244.867 135L246.012 137L246.681 139L246.883 140.995L246.833 141.98L246.677 142.938L246.396 143.837L245.397 145.307L243.852 146.111L241.981 146.276L239 146.084L235 145.911L233 145.715L230 145.271L226.002 144.729L222.16 144.17L220.671 144.042L219 144L219.046 142.329L219.103 141.841L219.379 139.955L219.609 138.975L220.229 136.998L221.258 134L222.515 130L224.309 125C225.246 122.341 226.083 119.647 227.053 117C228.037 114.317 229.182 111.694 230.136 109C231.071 106.359 231.759 103.639 232.698 101C233.402 99.0221 234.254 97.106 235.039 95.1605L235.387 94.159L235.575 93.6713L236 92L234.698 93.0864L233.68 94.3202L231.906 96.956L231.249 97.841L229.738 99.2878L228.875 99.7438L227.04 99.9398L226.143 99.6728L225.313 99.1991L223.985 97.767L223.109 95.956L222.144 93.0178L221.215 90.321L220.849 89.517L220.698 89.0864L220 88M256 110L256 143L256 154L255.999 158L255.985 160C255.953 161.34 255.887 162.67 255.715 164L255.285 167L255.09 169C254.976 170.662 255.003 172.333 255 173.998L255 181L253.349 180.938L252.9 180.853L251.988 180.682L250.579 179.972L250.023 179.397L249.602 178.682L249.318 177.852L249.148 176.941L249.019 174.995L249.001 173L249 171L249 164L249 109L250.667 109.042L252.116 109.178C252.859 109.274 253.602 109.405 254.333 109.568L256 110M181 158L178.988 157.685L178.157 157.396L177.004 156.397L176.331 154.852L176.149 152.981L176.193 151.995L176.305 150.999L176.665 149L177.576 145L178.6 140L179.386 136L179.869 133L180.435 129C180.83 126.651 181.335 124.317 181.884 122L183.117 117.001L183.595 115.019L183.848 114.059L184.144 113.153L184.508 112.337L184.969 111.662L186.162 110.921L186.814 110.921L187.412 111.176L187.887 111.662L188.308 113.153L188.079 115.019L187.575 117.001L187.119 119L186.743 121L186.339 123L185.211 128C184.861 129.659 184.534 131.324 184.275 133L183.87 136L183.246 140L181.92 148C181.648 149.654 181.336 151.307 181.17 152.975C181.003 154.649 181.014 156.321 181 158M301 111C300.991 112.052 301.009 113.109 300.961 114.16C300.901 115.45 300.766 116.727 300.56 118.002C300.287 119.69 299.887 121.349 299.444 123L299.15 124L298.285 127L297.08 132C296.534 134.016 295.82 135.981 295.285 138C294.848 139.655 294.513 141.336 294.116 143L292.887 148L292.449 150L291.753 154L290.75 160C290.286 162.672 289.688 165.32 289.275 168L288.728 172C288.323 174.671 287.868 177.337 287.413 180L286.88 182.998L286.421 184.975L285.573 187.841L285.41 188.329L285 190L281 190C281.001 188.002 280.95 185.99 281.09 183.995L281.285 182L281.718 179L282.156 175L282.438 173L283.565 167L284.275 162C284.472 160.659 284.729 159.325 285.015 158L285.475 156L286.525 152L287.196 149C287.966 145.339 288.618 141.653 289.424 138C289.794 136.326 290.213 134.664 290.627 133L292.127 127L293.151 123L294.269 119L295.075 116.025L295.668 114.16C296.032 113.082 296.551 112.04 297 111L301 111M356 178L356.187 176.329L356.291 175.841L356.468 174.84C356.685 173.882 356.927 172.932 357.22 171.995C357.855 169.962 358.744 168.023 359.41 166L360.285 163L360.939 161L362.552 157L364.448 152L366.086 148L366.459 147L367.113 145L368.355 141L369.424 138C370.05 136.338 370.712 134.692 371.254 133C372.098 130.367 372.669 127.657 373.427 125C374.325 121.854 375.43 118.773 376.466 115.671L377 114L379.012 114.59L379.842 115.029L380.982 116.318L381.594 118.059L381.652 120.005L381.542 121.001L381.194 123C380.76 125.354 380.222 127.696 379.572 130C379.097 131.682 378.547 133.341 377.999 135C377.336 137.007 376.664 139.011 375.947 141L374.424 145L372.95 149L371.797 152L369 159C368.208 160.987 367.416 162.969 366.742 165L365.806 168L365.485 169L364.409 171.995L364.032 172.981L363.211 174.852L362.725 175.682L362.159 176.397L361.495 176.972L359.911 177.682L359.106 177.852L357.667 177.98L356 178M415 170L412.985 169.41L412.142 168.971L410.898 167.682L409.926 165.941L409.093 163.995L408.667 162.999L407.738 161L405.247 156C404.408 154.326 403.576 152.649 402.688 151C402.14 149.98 401.545 148.984 400.934 148C400.091 146.64 399.189 145.319 398.283 144L396.25 141.025L395.145 139.16L394.468 137.671L394 136L396.155 135.673L397.145 135.765L398.92 136.637L400.612 138.151L402.046 140.019L402.676 141.005L404.421 144C405.187 145.327 405.97 146.647 406.691 148C407.923 150.31 409.079 152.658 410.247 155C410.91 156.33 411.597 157.65 412.218 159L412.688 160L413.532 162C413.889 162.981 414.23 163.958 414.471 164.975L414.815 166.84L414.907 167.841L414.958 168.329L415 170M150 139L149.225 140.671L148.264 142.16L146.812 144.025L144.27 147L140.87 151L138.285 154C136.938 155.62 135.659 157.29 134.428 159C133.248 160.641 132.125 162.321 131.001 164L129.003 167L127.068 170C126.472 170.98 125.877 171.968 125.373 173C124.103 175.602 123.072 178.312 122 181C121.337 182.661 120.669 184.321 120.053 186C119.446 187.655 118.89 189.328 118.333 191C117.781 192.658 117.212 194.315 116.745 196C116.015 198.636 115.576 201.337 114.961 204C114.726 205.014 114.433 206.01 114.113 207L113.41 209L112.355 212L110.485 218L109.413 221L108.316 224L107.142 227L105.915 230L105.545 231C105.011 232.633 104.526 234.289 104.316 236C104.192 237.001 104.152 237.993 104.209 239C104.285 240.344 104.541 241.673 104.754 243C105.074 244.999 105.447 246.993 105.718 249L106.155 253L106.427 255L106.754 257L107.41 261C107.57 261.997 107.733 262.994 107.83 264C107.991 265.661 107.991 267.328 107.999 268.995L108 275L106.355 274.901L105 274.71L103.645 274.432L102 274L102.098 272.329L102.285 270.84L102.675 267.995L102.741 266C102.705 264.655 102.445 263.332 102.281 262L102.155 261L101.845 258L101.285 254L101.075 252L100.834 249C100.619 246.994 100.227 245.015 100.09 243C100.021 242.002 100.013 241 100.004 240L100 236L100.015 232C100.039 231.001 100.062 229.991 100.213 229L100.637 227L101.349 225L103.573 220L105.6 215C106.53 212.677 107.469 210.358 108.308 208C109.014 206.017 109.673 204.015 110.28 202L111.72 197C112.529 194.314 113.446 191.661 114.333 189L115.667 185L116.695 182L117.45 180L119.579 175L122.59 168C123.037 166.995 123.466 165.979 123.969 165C124.838 163.307 125.78 161.654 126.721 160L128.45 157C129.062 155.985 129.7 154.987 130.356 154C131.944 151.607 133.663 149.308 135.371 147L137.576 144.005L139.015 142.059L139.749 141.148L140.515 140.318L142.184 139.029L143.092 138.606L144.99 138.182L145.959 138.152L147.841 138.363L148.329 138.416L150 139z"/>
</svg>
